<svg xmlns="http://www.w3.org/2000/svg" viewBox="0 0 64 64" id="email">
  <path fill="#dcb513" d="M47,52H17a4,4,0,0,1-4-4V30L30.55,13.53a2,2,0,0,1,2.9,0L51,30V48A4,4,0,0,1,47,52Z"></path>
  <path fill="#75c7f2" d="M43,17H21a2,2,0,0,0-2,2V32.53L32,38l13-5.47V19A2,2,0,0,0,43,17Z"></path>
  <path fill="#f0c515" d="M51,30V48a4,4,0,0,1-4,4H17a4,4,0,0,1-4-4V30l14.68,6.18L32,38l4.32-1.82Z"></path>
  <path fill="#0e65b2" d="M33.3,24.77l.15-.65H35l-.89,4.2a3.9,3.9,0,0,0-.08.52.32.32,0,0,0,.07.22.2.2,0,0,0,.16.07,1.51,1.51,0,0,0,.82-.41,3.68,3.68,0,0,0,.87-1.13A3.25,3.25,0,0,0,36.31,26,3.33,3.33,0,0,0,36,24.71a2.9,2.9,0,0,0-.77-1.07A3.44,3.44,0,0,0,34,22.92a5.15,5.15,0,0,0-1.68-.26,6,6,0,0,0-1.75.25,4.52,4.52,0,0,0-1.4.72,4,4,0,0,0-1,1.15,4.82,4.82,0,0,0-.54,1.32,5.72,5.72,0,0,0-.19,1.48,4.18,4.18,0,0,0,.4,1.85A3.91,3.91,0,0,0,29,30.83a5,5,0,0,0,1.85.8,7.82,7.82,0,0,0,2.45.1,5.66,5.66,0,0,0,1.84-.5,3.58,3.58,0,0,0,1.27-1h1.25a4.15,4.15,0,0,1-.79,1.11,4.39,4.39,0,0,1-1.15.83,5.79,5.79,0,0,1-1.47.52,8.86,8.86,0,0,1-1.77.17,8.12,8.12,0,0,1-2.6-.38A5.16,5.16,0,0,1,28,31.38a4.56,4.56,0,0,1-1.19-1.69,5.73,5.73,0,0,1-.41-2.19,6.39,6.39,0,0,1,.42-2.33A5.36,5.36,0,0,1,28,23.29,5.29,5.29,0,0,1,29.89,22a6.44,6.44,0,0,1,2.48-.46,6.08,6.08,0,0,1,2.05.33,4.83,4.83,0,0,1,1.59.93,4.21,4.21,0,0,1,1,1.45,4.79,4.79,0,0,1,.35,1.84,4.33,4.33,0,0,1-.29,1.54,4.2,4.2,0,0,1-.8,1.35,3.91,3.91,0,0,1-1.23.95,3.5,3.5,0,0,1-1.53.35,1.38,1.38,0,0,1-.74-.16.76.76,0,0,1-.35-.51,2.31,2.31,0,0,1-1.18.63A2.16,2.16,0,0,1,30,30.16a2.13,2.13,0,0,1-1-.86,2.69,2.69,0,0,1-.39-1.49A4.36,4.36,0,0,1,29,26a3.79,3.79,0,0,1,1.12-1.46A2.61,2.61,0,0,1,31.75,24,1.68,1.68,0,0,1,33.3,24.77Zm-3.21,3a1.69,1.69,0,0,0,.3,1.08.91.91,0,0,0,.76.37,1.26,1.26,0,0,0,1-.44,2.75,2.75,0,0,0,.64-1.11A4.31,4.31,0,0,0,33,26.41a1.89,1.89,0,0,0-.08-.56,1.49,1.49,0,0,0-.21-.44,1,1,0,0,0-.35-.28,1,1,0,0,0-.46-.1,1.31,1.31,0,0,0-.93.4,2.76,2.76,0,0,0-.63,1A4,4,0,0,0,30.09,27.8Z"></path>
  <path fill="#dcb513" d="M36.32,36.18l13.55,14.6A4,4,0,0,1,47,52H17a4,4,0,0,1-2.87-1.22l13.55-14.6L32,38Z"></path>
</svg>
